<?xml version="1.0" encoding="iso-8859-1"?>
<!-- Generator: Adobe Illustrator 19.0.0, SVG Export Plug-In . SVG Version: 6.00 Build 0)  -->
<svg version="1.1" id="Capa_1" xmlns="http://www.w3.org/2000/svg" xmlns:xlink="http://www.w3.org/1999/xlink" x="0px" y="0px"
	 viewBox="0 0 491.1 491.1" style="enable-background:new 0 0 491.1 491.1;" xml:space="preserve">
<g>
	<path d="M470.2,222.65H206.4V46.45c0-11.5-9.4-20.9-20.9-20.9H125c-68.7,0-125,56.3-125,125.1v213.7c0,11.5,9.4,20.9,20.9,20.9
		h17.3c-0.4,3.1-0.6,6.2-0.6,9.4c0,38.6,31.3,70.9,70.9,70.9s70.9-31.3,70.9-70.9c0-3.5-0.3-7-0.8-10.4h129.8
		c-0.5,3.4-0.8,6.9-0.8,10.4c0,38.6,31.3,70.9,70.9,70.9c38.6,0,70.9-31.3,70.9-70.9c0-3.5-0.3-7-0.8-10.4h20.6
		c11.5,0,20.9-9.4,21.9-21.9v-118.9C491,231.95,481.6,222.65,470.2,222.65z M448.3,264.35v78.2c0,0-21.1,0-21.7,0.1
		c-12.6-11.7-29.4-18.9-48.1-18.9c-18.5,0-35.5,7.2-48.2,19c-0.9-0.1-123.8-0.2-123.8-0.2v-78.2H448.3z M108.4,323.75
		c-18.9,0-36.3,7.5-49.1,19.8H40.6v-138.7h124.1v137.7h-8.3C143.8,330.95,127.1,323.75,108.4,323.75z M125.1,66.25h39.6v97H40.6
		v-12.5C40.6,103.75,78.2,66.25,125.1,66.25z M108.4,424.85c-16.7,0-30.2-13.6-30.2-30.2s13.6-30.2,30.2-30.2s30.2,13.6,30.2,30.2
		S125.1,424.85,108.4,424.85z M378.4,424.85c-16.7,0-30.2-13.6-30.2-30.2s13.6-30.2,30.2-30.2s30.2,13.6,30.2,30.2
		S395.1,424.85,378.4,424.85z"/>
</g>
<g>
</g>
<g>
</g>
<g>
</g>
<g>
</g>
<g>
</g>
<g>
</g>
<g>
</g>
<g>
</g>
<g>
</g>
<g>
</g>
<g>
</g>
<g>
</g>
<g>
</g>
<g>
</g>
<g>
</g>
</svg>
