<?xml version="1.0" encoding="iso-8859-1"?>
<!-- Generator: Adobe Illustrator 19.0.0, SVG Export Plug-In . SVG Version: 6.00 Build 0)  -->
<svg version="1.1" id="Layer_1" xmlns="http://www.w3.org/2000/svg" xmlns:xlink="http://www.w3.org/1999/xlink" x="0px" y="0px"
	 viewBox="0 0 512 512" style="enable-background:new 0 0 512 512;" xml:space="preserve">
<g>
	<path style="fill:#D0E8FF;" d="M422.176,357.052c-9.908,0-17.965,8.061-17.965,17.965c0,9.904,8.057,17.965,17.965,17.965
		s17.965-8.061,17.965-17.965C440.141,365.113,432.084,357.052,422.176,357.052z"/>
	<path style="fill:#D0E8FF;" d="M89.826,357.052c-9.908,0-17.965,8.061-17.965,17.965c0,9.904,8.057,17.965,17.965,17.965
		s17.965-8.061,17.965-17.965C107.791,365.113,99.734,357.052,89.826,357.052z"/>
	<polygon style="fill:#D0E8FF;" points="179.65,231.298 105.585,231.298 92.752,276.21 179.65,276.21 	"/>
</g>
<path style="fill:#5CB0FF;" d="M197.615,222.315v152.701h161.684c0-34.667,28.206-62.877,62.877-62.877s62.877,28.21,62.877,62.877
	h8.982V150.456h-296.42V222.315z"/>
<path style="fill:#D0E8FF;" d="M179.65,294.175H67.33c-22.697,0-42.833,18.368-44.881,40.947l-3.627,39.895h8.127
	c0-34.667,28.206-62.877,62.877-62.877s62.877,28.21,62.877,62.877h26.947V294.175z"/>
<g>
	<path style="fill:#1C71DA;" d="M503.018,132.491H188.633c-4.961,0-8.982,4.018-8.982,8.982v71.859H98.808
		c-4.009,0-7.535,2.658-8.636,6.517l-16.105,56.36H67.33c-31.741,0-59.903,25.693-62.776,57.28l-4.517,49.693
		c-0.228,2.518,0.614,5.009,2.316,6.877c1.702,1.86,4.11,2.921,6.632,2.921h27.693c2.645,0,5.153-1.167,6.86-3.184
		c1.706-2.018,2.439-4.684,2-7.289c-0.412-2.447-0.623-4.974-0.623-7.491c0-24.763,20.149-44.912,44.912-44.912
		s44.912,20.149,44.912,44.912c0,2.518-0.211,5.044-0.623,7.491c-0.439,2.605,0.294,5.272,2,7.289
		c1.706,2.017,4.215,3.184,6.86,3.184h45.658h180.394c2.645,0,5.153-1.167,6.86-3.184s2.439-4.684,2-7.289
		c-0.412-2.447-0.623-4.974-0.623-7.491c0-24.763,20.149-44.912,44.912-44.912c24.763,0,44.912,20.149,44.912,44.912
		c0,2.518-0.211,5.044-0.623,7.491c-0.439,2.605,0.294,5.272,2,7.289s4.215,3.184,6.86,3.184h27.693
		c4.961,0,8.982-4.018,8.982-8.982V141.474C512,136.509,507.978,132.491,503.018,132.491z M105.585,231.298h74.066v44.912H92.752
		L105.585,231.298z M89.826,312.14c-34.671,0-62.877,28.21-62.877,62.877h-8.127l3.627-39.895
		c2.048-22.579,22.184-40.947,44.881-40.947h112.32v80.842h-26.947C152.703,340.35,124.497,312.14,89.826,312.14z M494.035,375.017
		h-8.982c0-34.667-28.206-62.877-62.877-62.877s-62.877,28.21-62.877,62.877H197.615V222.315v-71.859h296.42V375.017z"/>
	<path style="fill:#1C71DA;" d="M422.176,339.087c-19.811,0-35.93,16.114-35.93,35.93c0,19.816,16.118,35.93,35.93,35.93
		s35.93-16.114,35.93-35.93C458.106,355.201,441.987,339.087,422.176,339.087z M422.176,392.982
		c-9.908,0-17.965-8.061-17.965-17.965c0-9.904,8.057-17.965,17.965-17.965s17.965,8.061,17.965,17.965
		C440.141,384.92,432.084,392.982,422.176,392.982z"/>
	<path style="fill:#1C71DA;" d="M89.826,339.087c-19.811,0-35.93,16.114-35.93,35.93c0,19.816,16.118,35.93,35.93,35.93
		s35.93-16.114,35.93-35.93C125.756,355.201,109.637,339.087,89.826,339.087z M89.826,392.982c-9.908,0-17.965-8.061-17.965-17.965
		c0-9.904,8.057-17.965,17.965-17.965s17.965,8.061,17.965,17.965C107.791,384.92,99.734,392.982,89.826,392.982z"/>
</g>
<g>
	<path style="fill:#FF5D5D;" d="M369.437,489.543c-2.299,0-4.598-0.877-6.352-2.632c-3.508-3.507-3.508-9.195,0-12.702
		l31.758-31.759c3.509-3.509,9.195-3.509,12.704,0c3.508,3.507,3.508,9.195,0,12.702l-31.758,31.759
		C374.035,488.665,371.736,489.543,369.437,489.543z"/>
	<path style="fill:#FF5D5D;" d="M401.195,489.543c-2.299,0-4.598-0.877-6.352-2.632l-31.758-31.757
		c-3.508-3.507-3.508-9.195,0-12.702c3.509-3.509,9.195-3.509,12.704,0l31.758,31.756c3.508,3.507,3.508,9.195,0,12.702
		C405.792,488.665,403.494,489.543,401.195,489.543z"/>
</g>
<path style="fill:#00D40B;" d="M104.455,94.316c-17.335,0-31.438-14.103-31.438-31.439s14.103-31.438,31.438-31.438
	s31.438,14.103,31.438,31.438S121.791,94.316,104.455,94.316z M104.455,49.404c-7.43,0-13.474,6.044-13.474,13.474
	s6.044,13.474,13.474,13.474s13.474-6.044,13.474-13.474S111.885,49.404,104.455,49.404z"/>
<path style="fill:#FFC504;" d="M403.826,91.233c-2.298,0-4.598-0.877-6.351-2.632l-25.407-25.406
	c-1.685-1.684-2.632-3.969-2.632-6.351c0-2.381,0.946-4.667,2.632-6.351l25.407-25.406c3.508-3.509,9.195-3.507,12.703,0
	l25.406,25.406c3.508,3.507,3.508,9.195,0,12.702l-25.406,25.406C408.424,90.355,406.124,91.233,403.826,91.233z M391.122,56.844
	l12.704,12.702l12.703-12.702l-12.703-12.702L391.122,56.844z"/>
<g>
</g>
<g>
</g>
<g>
</g>
<g>
</g>
<g>
</g>
<g>
</g>
<g>
</g>
<g>
</g>
<g>
</g>
<g>
</g>
<g>
</g>
<g>
</g>
<g>
</g>
<g>
</g>
<g>
</g>
</svg>
