<?xml version="1.0" encoding="iso-8859-1"?>
<!-- Generator: Adobe Illustrator 18.1.1, SVG Export Plug-In . SVG Version: 6.00 Build 0)  -->
<svg version="1.1" id="Capa_1" xmlns="http://www.w3.org/2000/svg" xmlns:xlink="http://www.w3.org/1999/xlink" x="0px" y="0px"
	 viewBox="0 0 612 612" style="enable-background:new 0 0 612 612;" xml:space="preserve">
<g>
	<g>
		<path d="M512.98,407.782c-0.626-0.473-1.265-0.932-1.916-1.378c1.049-3.411,1.597-6.995,1.597-10.664
			c0-9.647-3.76-18.717-10.585-25.532c0,0-116.106-116.93-119.962-120.349c16.541-16.694,26.85-39.558,27.152-64.79
			c12.158-2.884,21.044-13.723,21.044-26.721c0-13.001-8.892-23.845-21.056-26.724c-0.01-0.582,0.041-36.487,0.041-36.487
			c0-51.428-40.839-94.343-92.26-95.126c-52.339-0.798-95.171,41.545-95.171,93.704c0,0,0.054,37.325,0.044,37.905
			c-12.165,2.871-21.056,13.714-21.056,26.728c0,13.011,8.887,23.852,21.044,26.726c0.302,25.21,10.595,48.054,27.112,64.744
			c-4.196,5.017-104.453,105.551-104.453,105.551l-0.336-82.893l1.947-0.007c10.985-0.043,20.502-8.24,21.522-19.18
			c0.499-5.351-1.036-10.326-3.896-14.298c21.1-9.59,35.052-30.766,34.957-54.632l-0.372-93.426l-11.437,0.044l0.352,88.483
			l-9.846-0.036l-0.355-88.393l-11.437,0.044l0.353,88.306l-10.752-0.04l-0.353-88.221l-11.437,0.044l0.353,88.135l-9.641-0.036
			l-0.353-88.058l-11.437,0.044l0.353,87.971l-10.752-0.04l-0.349-87.888l-11.437,0.044l0.352,87.799l-9.89-0.037L90.316,91.36
			l-11.437,0.044l0.372,93.426c0.094,23.896,14.235,44.968,35.441,54.367c-2.442,3.467-3.884,7.684-3.867,12.238
			c0.047,11.629,9.544,21.087,21.171,21.087l0.789-0.003l0.382,94.239l-3.448,3.448c-14.073,14.073-14.075,36.983,0,51.075
			c1.159,1.159,2.389,2.223,3.67,3.202l0.732,181.162l11.437-0.047l-0.708-175.256c3.331,0.996,6.825,1.515,10.401,1.515
			c9.646,0,18.712-3.756,25.53-10.575l33.298-33.298v77.362h30.079V612h142.849V465.348h28.65v-79.42l28.586,28.585
			c-0.486,0.538-0.959,1.085-1.422,1.641c-9.241,11.107-12.947,25.813-10.859,40.11l13.747,94.136h73.738l13.148-93.682
			C535.211,438.078,528.002,419.118,512.98,407.782z M186.903,190.896c-1.098,8.433-4.373,16.256-9.315,22.816l-0.092-22.851
			L186.903,190.896z M166.058,190.818l0.136,33.751c-3.288,2.236-6.882,4.083-10.729,5.471l-0.157-39.262L166.058,190.818z
			 M143.87,190.736l0.157,39.398l-9.641,0.039l-0.159-39.472L143.87,190.736z M122.79,190.657l0.159,39.519
			c-3.859-1.351-7.467-3.162-10.774-5.365l-0.137-34.194L122.79,190.657z M91.058,190.54l9.544,0.036l0.094,23.506
			C95.53,207.362,92.13,199.278,91.058,190.54z M131.996,261.086c-5.345,0-9.713-4.349-9.734-9.694
			c-0.021-5.367,4.327-9.75,9.694-9.773l14.658-0.059c5.345,0,9.711,4.349,9.734,9.694c0.021,5.367-4.327,9.75-9.694,9.773
			l-14.618,0.059 M501.224,395.739c0,6.591-2.569,12.789-7.235,17.456c-4.659,4.659-10.854,7.225-17.444,7.225
			c-6.589,0-12.784-2.566-17.443-7.225l-12.322-12.322l35.581-34.211l11.632,11.633C498.656,382.955,501.224,389.15,501.224,395.739
			z M438.69,392.784l-7.693-7.693l35.582-34.211l7.693,7.693L438.69,392.784z M381.611,265.421
			c-7.969,8.386-12.446,19.417-12.446,31.013c0,20.083,12.762,37.434,31.752,43.172c1.088,0.329,2.19,0.619,3.302,0.864v17.653
			H225.515v-17.579c1.455-0.312,2.881-0.693,4.263-1.142c18.777-5.92,31.892-23.589,31.892-42.969
			c0-11.933-4.336-23.027-12.05-31.19c2.503-2.759,5.177-5.347,7.987-7.76c4.726,3.734,9.817,7.02,15.214,9.8
			c3.73,20.458,21.729,35.624,42.753,35.624s39.029-15.166,42.762-35.624c5.381-2.772,10.459-6.047,15.174-9.767
			C376.374,259.977,379.085,262.615,381.611,265.421z M211.382,374.509l-35.581-34.21l66.308-66.308
			c5.21,5.964,8.126,13.893,8.126,22.444c0,14.442-9.824,27.625-23.941,32.074c-2.245,0.729-4.613,1.217-7.041,1.45l-5.174,0.495
			v41.358L211.382,374.509z M203.291,382.598l-8.797,8.797l-35.581-34.21l8.797-8.797L203.291,382.598z M404.22,369.561v42.889
			H225.516v-42.889H404.22z M315.578,291.47c-12.662,0-23.811-7.476-28.97-18.427c9.131,2.977,18.864,4.606,28.976,4.606
			c10.109,0,19.84-1.63,28.97-4.605C339.389,283.995,328.238,291.47,315.578,291.47z M418.874,158.347
			c0,6.583-3.909,12.215-9.579,14.689v-29.378C414.966,146.134,418.874,151.764,418.874,158.347z M383.878,118.44H247.285
			C287.71,88.53,343.453,88.53,383.878,118.44z M397.86,93.714v21.302c-22.056-18.957-49.134-29.08-76.558-30.311V11.657
			C364.009,14.606,397.86,50.27,397.86,93.714z M309.865,11.655v73.047c-27.426,1.231-54.505,11.354-76.561,30.311V93.712
			C233.304,50.268,267.156,14.605,309.865,11.655z M212.292,158.347c0-6.592,3.909-12.225,9.579-14.695v29.392
			C216.201,170.573,212.292,164.941,212.292,158.347z M233.392,129.878h164.381c0.044,1.109,0.084,54.062,0.084,54.062
			c0,45.367-36.909,82.275-82.275,82.275s-82.275-36.907-82.275-82.275C233.308,183.938,233.348,130.986,233.392,129.878z
			 M172.693,413.195c-4.659,4.659-10.854,7.225-17.443,7.225s-12.785-2.566-17.442-7.224c-9.619-9.629-9.619-25.287-0.001-34.903
			l13.018-13.018l35.581,34.21L172.693,413.195z M309.865,465.347v58.615h-54.269v-58.615H309.865z M309.865,579.434
			c-6.974-6.889-16.564-11.124-27.134-11.124s-20.159,4.233-27.133,11.122v-19.73h54.269v19.732H309.865z M282.729,579.746
			c12.868,0,23.649,8.449,26.421,20.815h-52.842C259.081,588.196,269.862,579.746,282.729,579.746z M321.302,559.702h54.269v19.733
			c-6.974-6.891-16.564-11.125-27.136-11.125c-10.571,0-20.158,4.233-27.133,11.121V559.702z M348.433,579.746
			c12.868,0,23.649,8.449,26.421,20.815h-52.842C324.786,588.196,335.567,579.746,348.433,579.746z M375.571,548.265h-54.269
			v-12.867h54.269V548.265z M309.865,548.265h-54.269v-12.867h54.269L309.865,548.265L309.865,548.265z M375.571,523.961h-54.269
			v-58.615h54.269V523.961z M225.516,453.91v-30.022H404.22v30.022H225.516z M410.514,329.917c-2.123-0.214-4.236-0.638-6.283-1.258
			c-14.133-4.27-23.628-17.221-23.628-32.225c0-8.423,3.195-16.452,8.878-22.663l69.01,69.017L422.909,377l-7.25-7.25v-39.315
			L410.514,329.917z M452.382,422.579c6.641,5.997,15.15,9.278,24.164,9.278c9.646,0,18.712-3.756,25.53-10.575
			c1.417-1.417,2.693-2.936,3.84-4.532c9.184,6.848,15.227,17.347,16.724,29.053h-80.683
			C443.072,437.126,446.702,429.032,452.382,422.579z M509.649,538.96h-54.142l-11.689-81.719h77.516L509.649,538.96z"/>
		<circle cx="277.87" cy="169.231" r="13.509"/>
		<circle cx="353.293" cy="169.231" r="13.509"/>
	</g>
</g>
<g>
</g>
<g>
</g>
<g>
</g>
<g>
</g>
<g>
</g>
<g>
</g>
<g>
</g>
<g>
</g>
<g>
</g>
<g>
</g>
<g>
</g>
<g>
</g>
<g>
</g>
<g>
</g>
<g>
</g>
</svg>
