<?xml version="1.0" encoding="iso-8859-1"?>
<!-- Generator: Adobe Illustrator 19.0.0, SVG Export Plug-In . SVG Version: 6.00 Build 0)  -->
<svg version="1.1" id="Layer_1" xmlns="http://www.w3.org/2000/svg" xmlns:xlink="http://www.w3.org/1999/xlink" x="0px" y="0px"
	 viewBox="0 0 512.001 512.001" style="enable-background:new 0 0 512.001 512.001;" xml:space="preserve">
<g>
	<g>
		<path d="M10.709,491.113h-0.137c-5.767,0-10.444,4.676-10.444,10.444c0,5.768,4.677,10.444,10.444,10.444h0.137
			c5.767,0,10.444-4.676,10.444-10.444C21.153,495.789,16.476,491.113,10.709,491.113z"/>
	</g>
</g>
<g>
	<g>
		<path d="M501.429,491.113h-0.137c-5.767,0-10.444,4.676-10.444,10.444c0,5.768,4.677,10.444,10.444,10.444h0.137
			c5.767,0,10.444-4.676,10.444-10.444C511.872,495.789,507.196,491.113,501.429,491.113z"/>
	</g>
</g>
<g>
	<g>
		<path d="M266.25,261.472h-20.411c-5.767,0-10.444,4.676-10.444,10.444c0,11.386,9.264,20.649,20.649,20.649
			c11.386,0,20.648-9.264,20.649-20.649C276.694,266.147,272.017,261.472,266.25,261.472z"/>
	</g>
</g>
<g>
	<g>
		<path d="M296.564,446.205h-0.137c-5.767,0-10.444,4.676-10.444,10.444c0,5.768,4.677,10.444,10.444,10.444h0.137
			c5.767,0,10.444-4.676,10.444-10.444C307.008,450.881,302.331,446.205,296.564,446.205z"/>
	</g>
</g>
<g>
	<g>
		<path d="M369.533,446.205H330.35c-5.767,0-10.444,4.676-10.444,10.444c0,5.768,4.677,10.444,10.444,10.444h39.183
			c5.767,0,10.444-4.676,10.444-10.444C379.977,450.881,375.3,446.205,369.533,446.205z"/>
	</g>
</g>
<g>
	<g>
		<path d="M215.321,446.205h-0.137c-5.767,0-10.444,4.676-10.444,10.444c0,5.768,4.677,10.444,10.444,10.444h0.137
			c5.767,0,10.444-4.676,10.444-10.444C225.765,450.881,221.088,446.205,215.321,446.205z"/>
	</g>
</g>
<g>
	<g>
		<path d="M181.396,446.205h-39.183c-5.767,0-10.444,4.676-10.444,10.444c0,5.768,4.677,10.444,10.444,10.444h39.183
			c5.768,0,10.444-4.676,10.444-10.444C191.84,450.881,187.163,446.205,181.396,446.205z"/>
	</g>
</g>
<g>
	<g>
		<path d="M66.681,218.01c-5.767,0-10.444,4.676-10.444,10.444v14.109c0,5.768,4.677,10.444,10.444,10.444
			c5.768,0,10.444-4.676,10.444-10.444v-14.109C77.125,222.686,72.448,218.01,66.681,218.01z"/>
	</g>
</g>
<g>
	<g>
		<path d="M30.31,251.848l-9.981-9.976c-4.079-4.078-10.693-4.077-14.77,0.002c-4.077,4.08-4.076,10.692,0.003,14.771l9.981,9.976
			c2.039,2.039,4.71,3.058,7.383,3.058s5.347-1.021,7.387-3.06C34.39,262.538,34.389,255.926,30.31,251.848z"/>
	</g>
</g>
<g>
	<g>
		<path d="M128.559,241.117c-4.077-4.077-10.691-4.078-14.77,0l-9.978,9.977c-4.079,4.078-4.079,10.69-0.001,14.77
			c2.039,2.039,4.711,3.059,7.385,3.059c2.673,0,5.345-1.019,7.385-3.059l9.978-9.977
			C132.638,251.808,132.638,245.196,128.559,241.117z"/>
	</g>
</g>
<g>
	<g>
		<path d="M66.633,260.164c-36.643,0-66.454,29.81-66.454,66.448c0,21.801,11.269,42.832,29.17,55.264v10.691
			c0,20.516,16.732,37.206,37.297,37.206s37.297-16.69,37.297-37.206v-10.59c17.878-12.442,29.144-33.532,29.144-55.365
			C133.088,289.973,103.276,260.164,66.633,260.164z M83.055,392.568c0,8.997-7.361,16.318-16.409,16.318
			s-16.409-7.32-16.409-16.318v-5.907h32.818V392.568z M61.014,330.809l5.151-4.168l6.06,4.418l-5.559,15.079L61.014,330.809z
			 M90.623,365.769h-8.932l19.778-53.644c1.995-5.412-0.774-11.417-6.187-13.412c-5.408-1.995-11.416,0.775-13.412,6.186
			l-2.133,5.786l-7.753-5.651c-3.822-2.786-9.043-2.655-12.722,0.322l-5.879,4.758l-1.916-5.199
			c-1.996-5.413-7.998-8.182-13.413-6.186c-5.412,1.996-8.181,8-6.186,13.412l19.774,53.629h-8.806
			c-13.301-8.403-21.769-23.498-21.769-39.157c0-25.122,20.44-45.561,45.567-45.561s45.567,20.438,45.567,45.561
			C112.2,342.248,103.809,357.34,90.623,365.769z"/>
	</g>
</g>
<g>
	<g>
		<path d="M113.718,72.707c-2.336-4.585-7.176-7.322-12.944-7.322H82.066l6.883-50.442C90.36,4.592,83.784,1.378,81.734,0.64
			c-2.048-0.738-9.164-2.458-14.681,6.417L17.759,86.319c-2.959,4.762-3.256,10.248-0.796,14.674
			c2.462,4.427,7.278,7.07,12.887,7.07h14.1l-11.342,50.015c-2.326,10.252,3.992,13.997,5.983,14.9
			c0.814,0.37,2.462,0.97,4.548,0.97c3.016,0,6.949-1.256,10.604-6.283l58.293-80.187C115.425,82.813,116.054,77.291,113.718,72.707
			z M62.705,119.819l4.509-19.887c0.702-3.098-0.043-6.346-2.024-8.827c-1.982-2.481-4.985-3.927-8.161-3.927H41.824l20.737-33.346
			l-2.808,20.586c-0.408,2.989,0.497,6.007,2.479,8.28c1.983,2.272,4.852,3.576,7.868,3.576h16.991L62.705,119.819z"/>
	</g>
</g>
<g>
	<g>
		<path d="M294.088,212.265c-6.437,0-11.674,5.237-11.674,11.674c0.001,6.437,5.238,11.673,11.674,11.673
			c6.436,0,11.673-5.237,11.673-11.673C305.761,217.501,300.524,212.265,294.088,212.265z"/>
	</g>
</g>
<g>
	<g>
		<path d="M217.912,212.265c-6.436,0-11.673,5.237-11.673,11.674c0,6.436,5.237,11.673,11.673,11.673
			c6.437,0,11.674-5.236,11.674-11.673C229.586,217.502,224.348,212.265,217.912,212.265z"/>
	</g>
</g>
<g>
	<g>
		<path d="M467.504,491.113h-57.942v-70.615c0-20.358-12.286-39.694-29.875-47.023l-67.214-28.005
			c-2.39-0.995-3.934-3.312-3.934-5.902v-16.262l27.3-15.653c0.19-0.11,0.377-0.225,0.56-0.346
			c13.669-9.027,22.644-25.08,24.009-42.943c0.021-0.264,0.03-0.531,0.03-0.796v-8.67c13.562-4.411,23.393-17.174,23.393-32.189
			c0-15.015-9.831-27.777-23.393-32.189v-8.455h10.605c7.81,0,14.164-6.353,14.164-14.163v-20.827
			c0-6.779-4.787-12.46-11.159-13.842c-3.767-26.214-16.096-50.468-35.295-69.097c-13.745-13.337-30.38-23.158-48.506-28.702v-7.41
			c0-8.066-6.354-14.626-14.164-14.626h-40.166c-7.81,0-14.164,6.562-14.164,14.626v6.821c-18.901,5.419-36.219,15.443-50.49,29.29
			c-19.349,18.776-31.721,43.265-35.381,69.715c-5.311,2.045-9.088,7.201-9.088,13.223v20.827c0,7.81,6.354,14.163,14.164,14.163
			h10.605v8.455c-13.562,4.411-23.393,17.174-23.393,32.189c0,15.015,9.831,27.777,23.393,32.189v8.67
			c0,0.265,0.01,0.532,0.03,0.796c1.371,17.936,10.284,33.989,23.841,42.943c0.187,0.124,0.377,0.241,0.572,0.352l27.456,15.696
			v16.213c0,2.589-1.545,4.905-3.934,5.902l-67.214,28.006c-17.59,7.329-29.875,26.666-29.875,47.022v70.615H44.495
			c-5.767,0-10.444,4.676-10.444,10.444c0,5.768,4.677,10.444,10.444,10.444h423.009c5.767,0,10.444-4.676,10.444-10.444
			C477.948,495.787,473.272,491.113,467.504,491.113z M147.682,161.179v-7.626c4.445-0.986,7.853-4.808,8.153-9.53
			c1.573-24.617,12.217-47.664,29.975-64.894c13.5-13.099,30.284-22.054,48.542-25.901c4.832-1.018,8.29-5.281,8.29-10.219v-8.722
			h26.717v9.159c0,4.866,3.36,9.086,8.101,10.177c17.55,4.04,33.715,12.858,46.747,25.505c17.758,17.23,28.402,40.276,29.975,64.894
			c0.345,5.403,4.756,9.629,10.137,9.774v7.382H147.682z M186.688,289.706c-7.98-5.404-13.278-15.286-14.239-26.558v-17.045
			c0-5.768-4.677-10.444-10.444-10.444c-7.14,0-12.949-5.81-12.949-12.949c0-7.139,5.81-12.949,12.949-12.949
			c5.767,0,10.444-4.676,10.444-10.444v-17.25h167.1v17.25c0,5.768,4.677,10.444,10.444,10.444c7.14,0,12.949,5.81,12.949,12.949
			c0,7.139-5.81,12.949-12.949,12.949c-5.767,0-10.444,4.676-10.444,10.444v17.043c-0.948,11.044-6.44,21.165-14.413,26.564
			l-56.071,32.151c-0.19,0.11-0.377,0.225-0.56,0.346c-7.831,5.171-17.177,5.171-25.008,0c-0.187-0.123-0.377-0.241-0.572-0.352
			L186.688,289.706z M245.609,491.113h-0.001H123.326v-70.615c0-11.771,7.318-23.698,17.022-27.742l55.433-23.097l15.796,44.243
			c1.278,3.58,4.4,6.182,8.151,6.796c0.563,0.092,1.126,0.137,1.686,0.137c3.17,0,6.206-1.445,8.205-3.983l15.989-20.308V491.113z
			 M214.709,360.554c6.387,5.99,13.964,10.489,22.237,13.223l-12.051,15.307L214.709,360.554z M224.331,340.077
			c0.003-0.17,0.019-0.337,0.019-0.509v-4.273l7.936,4.537c7.332,4.761,15.523,7.141,23.716,7.141
			c8.195,0,16.389-2.382,23.722-7.146l7.928-4.546v4.286c0,0.213,0.019,0.422,0.023,0.633c-7.491,9.912-19.071,15.749-31.623,15.749
			C243.438,355.95,231.818,350.066,224.331,340.077z M297.397,360.548l-10.188,28.536l-12.054-15.311
			C283.428,371.038,291.008,366.538,297.397,360.548z M388.675,491.113H266.495V396.54l15.99,20.31
			c1.999,2.539,5.035,3.983,8.205,3.983c0.559,0,1.123-0.045,1.686-0.137c3.751-0.613,6.873-3.216,8.151-6.796l15.783-44.205
			l55.344,23.06c9.703,4.043,17.021,15.97,17.021,27.742V491.113z"/>
	</g>
</g>
<g>
	<g>
		<path d="M277.66,100.579c-1.701-3.709-5.409-6.086-9.489-6.086h-1.682l4.602-5.677c3.632-4.481,2.943-11.058-1.537-14.689
			c-4.479-3.631-11.059-2.943-14.689,1.537l-18.397,22.697c-2.536,3.129-3.046,7.436-1.314,11.07c1.732,3.634,5.401,5.95,9.427,5.95
			h0.851l-6.805,7.921c-3.759,4.375-3.257,10.969,1.116,14.728c1.972,1.693,4.392,2.522,6.801,2.522
			c2.939,0,5.861-1.234,7.928-3.639l21.622-25.17C278.751,108.648,279.363,104.288,277.66,100.579z"/>
	</g>
</g>
<g>
	<g>
		<path d="M479.648,190.386h-12.634v-69.47l19.216-18.324c2.824-2.692,3.911-6.734,2.82-10.48l-11.488-39.425
			c-1.298-4.457-5.384-7.523-10.027-7.523h-21.932c-4.642,0-8.728,3.065-10.027,7.523l-11.488,39.425
			c-1.091,3.745-0.004,7.788,2.82,10.48l19.216,18.324v69.47h-12.634c-5.767,0-10.444,4.676-10.444,10.444v94.05
			c0,18.483,15.037,33.521,33.521,33.521s33.521-15.037,33.521-33.521v-94.05C490.092,195.062,485.416,190.386,479.648,190.386z
			 M445.92,91.858l7.519-25.805h6.262l7.52,25.805l-10.651,10.156L445.92,91.858z M456.571,307.514
			c-6.966,0-12.634-5.668-12.634-12.634v-83.606h25.267v83.606h0.001C469.204,301.846,463.537,307.514,456.571,307.514z"/>
	</g>
</g>
<g>
</g>
<g>
</g>
<g>
</g>
<g>
</g>
<g>
</g>
<g>
</g>
<g>
</g>
<g>
</g>
<g>
</g>
<g>
</g>
<g>
</g>
<g>
</g>
<g>
</g>
<g>
</g>
<g>
</g>
</svg>
