<?xml version="1.0" encoding="iso-8859-1"?>
<!-- Generator: Adobe Illustrator 19.0.0, SVG Export Plug-In . SVG Version: 6.00 Build 0)  -->
<svg version="1.1" id="Layer_1" xmlns="http://www.w3.org/2000/svg" xmlns:xlink="http://www.w3.org/1999/xlink" x="0px" y="0px"
	 viewBox="0 0 512 512" style="enable-background:new 0 0 512 512;" xml:space="preserve">
<g>
	<g>
		<path d="M501.529,482.294h-0.137c-5.77,0-10.448,4.678-10.448,10.448c0,5.771,4.679,10.448,10.448,10.448h0.137
			c5.77,0,10.449-4.678,10.449-10.448C511.977,486.972,507.298,482.294,501.529,482.294z"/>
	</g>
</g>
<g>
	<g>
		<path d="M10.586,482.294h-0.138C4.679,482.294,0,486.972,0,492.743c0,5.771,4.679,10.448,10.448,10.448h0.138
			c5.77,0,10.448-4.678,10.448-10.448C21.035,486.972,16.356,482.294,10.586,482.294z"/>
	</g>
</g>
<g>
	<g>
		<path d="M217.884,203.319c-6.439,0-11.679,5.239-11.679,11.679c0,6.439,5.24,11.678,11.679,11.678s11.679-5.239,11.679-11.678
			C229.563,208.558,224.323,203.319,217.884,203.319z"/>
	</g>
</g>
<g>
	<g>
		<path d="M294.094,203.319c-6.439,0-11.679,5.239-11.679,11.679c0,6.439,5.24,11.678,11.679,11.678s11.678-5.239,11.679-11.678
			C305.774,208.558,300.534,203.319,294.094,203.319z"/>
	</g>
</g>
<g>
	<g>
		<path d="M266.156,252.547h-20.421c-5.77,0-10.449,4.678-10.449,10.449c0,11.391,9.268,20.659,20.659,20.659
			c11.391,0,20.658-9.267,20.659-20.659C276.604,257.225,271.926,252.547,266.156,252.547z"/>
	</g>
</g>
<g>
	<g>
		<path d="M255.938,425.03c-5.77,0-10.448,4.678-10.448,10.448v0.137c0,5.771,4.679,10.449,10.448,10.449
			c5.771,0,10.448-4.679,10.448-10.449v-0.137C266.387,429.708,261.708,425.03,255.938,425.03z"/>
	</g>
</g>
<g>
	<g>
		<path d="M90.896,34.094c-12.307-12.309-30.81-16.461-52.112-11.693c-3.946,0.883-7.028,3.966-7.913,7.913
			c-4.77,21.297-0.616,39.805,11.694,52.114c8.981,8.982,21.26,13.62,35.516,13.62c5.282,0,10.838-0.637,16.595-1.927
			c3.946-0.883,7.028-3.966,7.913-7.913C107.358,64.911,103.205,46.403,90.896,34.094z M83.326,74.86
			c-11.018,1.167-20.088-1.31-25.985-7.207c-5.897-5.898-8.377-14.976-7.207-25.99c11.017-1.168,20.089,1.31,25.987,7.207
			C82.016,54.768,84.495,63.845,83.326,74.86z"/>
	</g>
</g>
<g>
	<g>
		<path d="M492.408,18.646c-0.883-3.946-3.965-7.029-7.912-7.913c-21.297-4.768-39.805-0.616-52.114,11.692
			c-12.309,12.309-16.462,30.817-11.694,52.113c0.884,3.946,3.966,7.029,7.913,7.913c5.76,1.289,11.314,1.927,16.598,1.927
			c14.254,0,26.536-4.639,35.517-13.62C493.025,58.449,497.177,39.941,492.408,18.646z M465.94,55.982
			c-5.898,5.897-14.977,8.378-25.99,7.207c-1.169-11.013,1.311-20.09,7.207-25.987c5.897-5.896,14.971-8.377,25.989-7.207
			C474.316,41.008,471.837,50.085,465.94,55.982z"/>
	</g>
</g>
<g>
	<g>
		<path d="M77.341,265.174c-18.436,0-33.435,14.998-33.435,33.434s14.999,33.435,33.435,33.435c18.437,0,33.437-15,33.437-33.435
			C110.778,280.173,95.778,265.174,77.341,265.174z M77.341,311.147c-6.914,0-12.538-5.624-12.538-12.538
			c0-6.914,5.624-12.538,12.538-12.538c6.916,0,12.54,5.623,12.54,12.538C89.881,305.522,84.256,311.147,77.341,311.147z"/>
	</g>
</g>
<g>
	<g>
		<path d="M154.66,298.506c0-11.072-5.842-20.694-14.683-25.947c2.536-9.966-0.137-20.898-7.964-28.727
			c-7.827-7.825-18.76-10.497-28.725-7.962c-5.253-8.841-14.875-14.684-25.947-14.684c-11.072,0-20.693,5.842-25.946,14.683
			c-9.966-2.534-20.898,0.137-28.728,7.966c-7.824,7.827-10.496,18.759-7.962,28.724c-8.841,5.253-14.683,14.875-14.683,25.947
			c0,11.074,5.842,20.696,14.683,25.948c-2.534,9.965,0.139,20.898,7.963,28.725c7.828,7.827,18.757,10.502,28.727,7.964
			c3.506,5.901,8.966,10.454,15.497,12.837v43.225c0,5.771,4.679,10.449,10.449,10.449c5.77,0,10.448-4.678,10.448-10.449V373.98
			c6.531-2.383,11.992-6.936,15.497-12.837c9.969,2.534,20.902-0.139,28.727-7.964c7.826-7.827,10.499-18.759,7.963-28.726
			C148.819,319.202,154.66,309.581,154.66,298.506z M124.686,307.792c-4.118,0.114-7.784,2.637-9.362,6.444
			c-1.578,3.806-0.772,8.183,2.057,11.177c3.5,3.704,3.437,9.411-0.144,12.991c-3.582,3.582-9.29,3.643-12.992,0.145
			c-2.994-2.828-7.372-3.634-11.176-2.056c-3.805,1.578-6.329,5.243-6.444,9.36c-0.142,5.091-4.221,9.078-9.286,9.078
			s-9.143-3.987-9.286-9.078c-0.115-4.118-2.638-7.783-6.444-9.36c-1.292-0.536-2.651-0.796-3.999-0.796
			c-2.62,0-5.201,0.985-7.178,2.853c-3.703,3.499-9.409,3.435-12.99-0.145c-3.581-3.581-3.643-9.288-0.145-12.992
			c2.829-2.995,3.635-7.371,2.057-11.177c-1.578-3.805-5.244-6.329-9.362-6.444c-5.089-0.141-9.078-4.22-9.078-9.286
			c0-5.064,3.987-9.143,9.078-9.286c4.118-0.115,7.784-2.638,9.362-6.444c1.577-3.805,0.77-8.183-2.059-11.177
			c-3.499-3.702-3.434-9.409,0.144-12.989c3.581-3.582,9.289-3.646,12.992-0.145c2.995,2.829,7.372,3.635,11.176,2.058
			c3.806-1.577,6.33-5.243,6.445-9.361c0.142-5.092,4.221-9.079,9.286-9.079s9.143,3.988,9.286,9.079
			c0.115,4.118,2.638,7.783,6.444,9.36c3.806,1.577,8.183,0.772,11.176-2.057c3.705-3.5,9.412-3.435,12.991,0.143
			c3.582,3.582,3.644,9.288,0.146,12.991c-2.829,2.995-3.635,7.371-2.059,11.177c1.578,3.805,5.244,6.33,9.362,6.444
			c5.091,0.142,9.078,4.221,9.078,9.286C133.763,303.573,129.776,307.651,124.686,307.792z"/>
	</g>
</g>
<g>
	<g>
		<path d="M77.342,441.174c-5.77,0-10.449,4.678-10.449,10.448v0.137c0,5.771,4.679,10.448,10.449,10.448
			c5.771,0,10.448-4.678,10.448-10.448v-0.137C87.79,445.852,83.112,441.174,77.342,441.174z"/>
	</g>
</g>
<g>
	<g>
		<path d="M457.429,217.878c-3.415-2.166-7.775-2.166-11.189,0c-18.431,11.687-28.582,27.711-28.582,45.119
			c0,17.407,10.15,33.43,28.581,45.117c1.706,1.083,3.651,1.625,5.594,1.625s3.887-0.541,5.594-1.625
			c18.432-11.687,28.583-27.71,28.583-45.119C486.009,245.588,475.861,229.565,457.429,217.878z M451.831,286.469
			c-8.614-6.96-13.278-15.132-13.278-23.472s4.665-16.512,13.28-23.474c8.615,6.961,13.279,15.133,13.279,23.472
			C465.112,271.335,460.446,279.507,451.831,286.469z"/>
	</g>
</g>
<g>
	<g>
		<path d="M508.94,382.977l-13.286-13.286c-4.081-4.08-10.695-4.08-14.777,0c-3.982,3.981-4.067,10.369-0.279,14.468l-31.899,36.203
			v-55.091c0-5.771-4.679-10.448-10.448-10.448h-81.992l-43.772-18.238c-2.392-0.997-3.937-3.314-3.937-5.904v-16.221l27.468-15.703
			c0.195-0.111,0.386-0.229,0.573-0.352c13.563-8.958,22.481-25.018,23.852-42.962c0.021-0.264,0.03-0.531,0.03-0.796v-8.674
			c13.568-4.413,23.404-17.182,23.404-32.203c0-4.386-0.859-8.569-2.384-12.419c39.039-8.99,58.093-21.552,58.093-38.229
			c0-17.86-22.542-26.79-29.95-29.724c-8.269-3.276-18.375-6.261-29.934-8.881c-6.839-28.077-21.702-53.475-42.345-72.088
			c-22.839-20.593-51.757-31.934-81.424-31.934c-29.671,0-58.591,11.344-81.433,31.942c-20.646,18.618-35.507,44.023-42.343,72.107
			c-11.568,2.627-21.676,5.62-29.939,8.903c-7.378,2.932-29.827,11.851-29.827,29.676c0,16.677,19.054,29.239,58.093,38.229
			c-1.526,3.85-2.384,8.034-2.384,12.419c0,15.022,9.835,27.79,23.404,32.203v8.674c0,0.265,0.01,0.532,0.03,0.796
			c1.367,17.871,10.345,33.932,24.02,42.962c0.183,0.121,0.37,0.237,0.56,0.346l27.313,15.661v16.269
			c0,2.59-1.545,4.909-3.936,5.904l-67.245,28.018c-17.599,7.333-29.89,26.678-29.89,47.044v70.648H44.41
			c-5.77,0-10.448,4.678-10.448,10.448c0,5.771,4.679,10.449,10.448,10.449h423.201c5.77,0,10.449-4.678,10.449-10.449
			c0-5.771-4.679-10.448-10.449-10.448h-18.914v-30.323l46.793-53.107c1.809,1.292,3.932,1.95,6.06,1.95
			c2.675,0,5.348-1.02,7.388-3.06C513.02,393.673,513.02,387.057,508.94,382.977z M369.052,143.567
			c37.01,7.583,48.321,16.746,49.58,19.555c-1.353,3.126-13.513,12.62-53.571,20.332c-1.473-0.735-3.003-1.374-4.588-1.89v-21.646
			c0-6.128-0.635-12.092-1.938-18.318C362.067,142.215,368.986,143.555,369.052,143.567z M255.932,41.389
			c45.331,0,85.699,32.298,100.829,78.718c-0.189-0.03-9.163-1.385-10.966-1.633c-0.034-0.005-0.068-0.004-0.103-0.009
			c-27.024-3.69-57.943-5.671-89.705-5.671c-31.904,0-62.952,1.999-90.06,5.722c-0.047,0.006-0.094,0.005-0.141,0.013
			c-3.516,0.485-10.565,1.578-10.69,1.599C170.223,73.695,210.594,41.389,255.932,41.389z M93.345,163.123
			c1.256-2.8,12.533-11.945,49.429-19.523c0.079-0.015,6.965-1.351,10.463-1.962c-1.156,6.026-1.733,12.035-1.733,18.282v21.646
			c-1.585,0.516-3.114,1.156-4.588,1.89C106.858,175.742,94.698,166.248,93.345,163.123z M186.819,280.799
			c-7.977-5.401-13.47-15.526-14.419-26.576v-17.051c0-5.771-4.679-10.449-10.449-10.449c-7.144,0-12.955-5.813-12.955-12.955
			c0-7.143,5.813-12.955,12.955-12.955c5.77,0,10.449-4.678,10.449-10.448V159.92c0-7.458,0.982-14.295,3.099-21.579
			c24.516-3.029,52.111-4.649,80.489-4.649c28.244,0,55.714,1.606,80.145,4.608c2.38,7.841,3.443,14.538,3.443,21.62v30.445
			c0,5.771,4.679,10.448,10.449,10.448c7.144,0,12.955,5.813,12.955,12.955c0,7.143-5.813,12.955-12.955,12.955
			c-5.77,0-10.449,4.678-10.449,10.449v17.053c-0.961,11.278-6.262,21.165-14.245,26.571l-56.262,32.163
			c-0.195,0.111-0.385,0.229-0.573,0.352c-7.831,5.172-17.185,5.174-25.018,0c-0.183-0.121-0.37-0.236-0.56-0.346L186.819,280.799z
			 M224.325,326.393l7.93,4.547c7.336,4.766,15.534,7.148,23.733,7.148c8.196,0,16.392-2.381,23.725-7.145l7.94-4.539v41.808
			c0,17.38-14.228,31.52-31.715,31.52c-17.432,0-31.613-14.14-31.613-31.52V326.393z M326.458,449.493
			c-7.438-3.807-12.547-11.558-12.547-20.485s5.108-16.678,12.547-20.485V449.493z M326.458,365.271v21.103
			c-19.171,4.688-33.444,22.019-33.444,42.633s14.273,37.944,33.444,42.633v10.654h-60.073v-12.877
			c0-5.771-4.679-10.448-10.448-10.448s-10.448,4.678-10.448,10.448v12.877H123.254v-70.648c0-11.778,7.321-23.709,17.03-27.754
			l63.144-26.309v10.629c0,28.903,23.556,52.417,52.51,52.417c29.011,0,52.612-23.514,52.612-52.417v-10.629l17.919,7.466
			C326.469,365.124,326.458,365.197,326.458,365.271z M427.802,482.294h-80.445V375.72h80.445V482.294z"/>
	</g>
</g>
<g>
</g>
<g>
</g>
<g>
</g>
<g>
</g>
<g>
</g>
<g>
</g>
<g>
</g>
<g>
</g>
<g>
</g>
<g>
</g>
<g>
</g>
<g>
</g>
<g>
</g>
<g>
</g>
<g>
</g>
</svg>
