<?xml version="1.0" encoding="iso-8859-1"?>
<!-- Generator: Adobe Illustrator 16.0.0, SVG Export Plug-In . SVG Version: 6.00 Build 0)  -->
<!DOCTYPE svg PUBLIC "-//W3C//DTD SVG 1.1//EN" "http://www.w3.org/Graphics/SVG/1.1/DTD/svg11.dtd">
<svg version="1.1" id="Capa_1" xmlns="http://www.w3.org/2000/svg" xmlns:xlink="http://www.w3.org/1999/xlink" x="0px" y="0px"
	 width="308.329px" height="308.33px" viewBox="0 0 308.329 308.33" style="enable-background:new 0 0 308.329 308.33;"
	 xml:space="preserve">
<g>
	<path d="M260.267,8.35c-1.238,0-2.272,0.715-2.819,1.731V3.237c0-1.786-1.451-3.237-3.237-3.237h-59.978
		c-1.793,0-3.24,1.451-3.24,3.237v16.699c0,1.786,1.447,3.237,3.24,3.237h59.978c1.231,0,2.266-0.719,2.819-1.731v2.327
		l-33.133,3.34c-1.657,0.167-2.916,1.561-2.916,3.22v13.117h-3.877c-1.79,0-3.237,1.451-3.237,3.237v21.961
		c0,3.314,1.591,6.233,4.014,8.133c-0.287,4.921-1.561,10.275-4.828,15.217c-9.565,14.469-33.541,22.119-69.332,22.119
		c-1.059,0-2.057,0.214-3.012,0.525c-11.024-1.184-39.177-2.004-58.541,16.821c-16.076,15.626-21.685,40.264-16.758,73.205
		c-11.88,3.45-20.595,14.421-20.595,27.398v13.216c0,1.787,1.448,3.237,3.237,3.237h0.417v28.856c0,1.69,0,6.837,24.895,6.837
		s24.895-5.146,24.895-6.837v-28.856h0.417c1.79,0,3.237-1.45,3.237-3.237v-13.209c0-11.604-6.966-21.594-16.929-26.057
		c0.053-0.732,0.042-1.479-0.081-2.238c-4.447-27.384-0.833-47.007,10.733-58.317c5.159-5.042,11.502-8.028,17.816-9.748v72.969
		v21.867v65.165c0,6.968,5.645,12.617,12.612,12.617c6.966,0,12.616-5.646,12.616-12.617v-65.161h10.092v65.164
		c0,6.968,5.648,12.614,12.614,12.614c6.961,0,12.618-5.643,12.618-12.614v-65.164v-21.868v-77.178
		c26.645-3.932,45.189-13.565,55.261-28.794c12.053-18.233,7.908-38.407,5.321-46.835v-9.192c0-1.787-1.444-3.237-3.237-3.237
		h-3.881V33.255l33.134-3.338c1.652-0.169,2.912-1.561,2.912-3.222V11.589C263.504,9.798,262.057,8.35,260.267,8.35z
		 M95.339,230.113c-3.039-1.54-9.242-2.892-21.976-2.892s-18.937,1.352-21.975,2.892c0.812-9.219,7.32-16.816,15.976-19.271
		c1.78,2.57,4.712,4.206,7.945,4.206c0.518,0,1.043-0.041,1.569-0.123c2.208-0.362,4.093-1.465,5.513-2.984
		C89.504,215.145,94.621,222.002,95.339,230.113z"/>
	<circle cx="143.506" cy="85.074" r="23.121"/>
</g>
<g>
</g>
<g>
</g>
<g>
</g>
<g>
</g>
<g>
</g>
<g>
</g>
<g>
</g>
<g>
</g>
<g>
</g>
<g>
</g>
<g>
</g>
<g>
</g>
<g>
</g>
<g>
</g>
<g>
</g>
</svg>
